<svg id="Layer_5" data-name="Layer 5" xmlns="http://www.w3.org/2000/svg" viewBox="0 0 50 45"><defs><style>.cls-1{fill:#020202;}</style></defs><title>機台群組ICON</title><path class="cls-1" d="M1.27,45H12.58l1.91-4.3c0.53-1.3,1-2.05,2.23-2.05H39.84c1.22,0,1.44,1,2.23,2.05L44,45h4.59V33.24H1.27V45Zm2.5-9.18h6.93a0.82,0.82,0,0,1,0,1.65H3.77A0.82,0.82,0,0,1,3.77,35.82Zm0,2.82h6.93a0.71,0.71,0,1,1,0,1.41H3.77A0.71,0.71,0,1,1,3.77,38.65ZM2.91,42a0.78,0.78,0,0,1,.78-0.78h6.9a0.78,0.78,0,0,1,.78.78V42.1a0.78,0.78,0,0,1-.78.78H3.7a0.78,0.78,0,0,1-.78-0.78V42Zm5.92-9.69H0.62V15.58H8.84V32.33Zm2,0H9.27V15.58h1.56V32.33Zm2.28,0H11.55V15.58h1.56V32.33Zm7.34,0H18.9V15.58h1.56V32.33Zm2.08,0H20.68V15.58h1.86V32.33ZM20.46,17.43H9.27v-1H20.46v1Zm0,14H9.27v-1H20.46v1Zm-8.56-5H10.59v-5H11.9v5ZM14,29.68H13.12V18.18H14v11.5Zm4.91,0H18V18.16H18.9v11.5ZM38.18,21.8H22.71V20.65H38.18V21.8Zm0,5.75H22.71V26.4H38.18v1.16Zm0-1.89H22.71V22.55H38.18v3.11ZM44,13.43v2l-1,1v4H39V16.62l-1-1.19v-2h6ZM17.86,28.32H16V19.49h1.81v8.83Zm-2,0H14.15V19.49h1.67v8.83Zm9.91-6.24,0.89,0.45-1.81,3.58-0.89-.45Zm11.33,0,0.89,0.45-1.81,3.58-0.89-.45Zm-2.83,0,0.89,0.45-1.81,3.58-0.89-.45Zm-2.83,0,0.89,0.45-1.81,3.58-0.89-.45Zm-2.83,0,0.89,0.45-1.81,3.58-0.89-.45Zm20.65,10.2h-11V20.65h11V32.29ZM48,22.84H43.69v3.85H48V22.84Zm-3,4.4H43.7v0.5H45v-0.5Zm1.5,0H45.19v0.5h1.33v-0.5Zm1.5,0H46.69v0.5H48v-0.5Zm-3,.65H43.7v0.5H45v-0.5Zm1.5,0H45.2v0.5h1.33v-0.5Zm1.5,0H46.69v0.5H48v-0.5Zm-3,.65H43.7V29H45v-0.5Zm1.5,0H45.2V29h1.33v-0.5Zm1.5,0H46.69V29H48v-0.5Z"/></svg>